<?xml version="1.0" encoding="UTF-8"?>
<svg width="194px" height="37px" viewBox="0 0 194 37" version="1.1" xmlns="http://www.w3.org/2000/svg" xmlns:xlink="http://www.w3.org/1999/xlink">
    <!-- Generator: Sketch 50 (54983) - http://www.bohemiancoding.com/sketch -->
    <title>Group 4</title>
    <desc>Created with Sketch.</desc>
    <defs></defs>
    <g id="Page-1" stroke="none" stroke-width="1" fill="none" fill-rule="evenodd">
        <g id="Group-4" fill="#FFFFFF">
            <path d="M47.44,24.876 L47.44,15.732 L46.684,15.732 C46.288,15.732 46,15.408 46,15.048 L46,11.844 C46,11.448 46.288,11.16 46.684,11.16 L47.44,11.16 L47.44,7.848 C47.44,2.808 50.572,0 54.748,0 C56.62,0 58.528,0.792 59.14,1.368 C59.356,1.548 59.428,1.944 59.284,2.196 L57.772,5.184 C57.664,5.436 57.232,5.58 56.944,5.436 C56.476,5.184 55.792,4.86 55.072,4.86 C53.56,4.86 52.948,6.084 52.948,7.848 L52.948,11.16 L56.26,11.16 C56.656,11.16 56.944,11.448 56.944,11.844 L56.944,15.048 C56.944,15.408 56.656,15.732 56.26,15.732 L52.948,15.732 L52.948,24.876 C52.948,25.236 52.624,25.56 52.264,25.56 L48.124,25.56 C47.764,25.56 47.44,25.236 47.44,24.876 Z M58.096,22.536 C58.096,20.664 59.644,19.08 61.48,19.08 C63.352,19.08 64.936,20.664 64.936,22.536 C64.936,24.372 63.352,25.92 61.48,25.92 C59.644,25.92 58.096,24.372 58.096,22.536 Z M68.5,24.876 L68.5,1.044 C68.5,0.684 68.788,0.36 69.184,0.36 L77.86,0.36 C82.288,0.36 85.924,3.96 85.924,8.316 C85.924,12.78 82.288,16.416 77.896,16.416 L74.116,16.416 L74.116,24.876 C74.116,25.236 73.792,25.56 73.432,25.56 L69.184,25.56 C68.788,25.56 68.5,25.236 68.5,24.876 Z M74.116,11.16 L77.536,11.16 C79.084,11.16 80.38,9.936 80.38,8.316 C80.38,6.804 79.084,5.652 77.536,5.652 L74.116,5.652 L74.116,11.16 Z M88.048,24.876 L88.048,1.044 C88.048,0.684 88.372,0.36 88.732,0.36 L92.692,0.36 C93.052,0.36 93.376,0.684 93.376,1.044 L93.376,24.876 C93.376,25.236 93.052,25.56 92.692,25.56 L88.732,25.56 C88.372,25.56 88.048,25.236 88.048,24.876 Z M96.292,21.168 C96.292,18.396 98.308,16.344 101.584,16.344 C103.204,16.344 104.356,16.92 104.356,16.92 C104.356,15.516 104.14,14.796 102.412,14.796 C101.44,14.796 99.748,15.048 98.812,15.336 C98.272,15.516 98.02,15.12 97.948,14.58 L97.624,12.312 C97.516,11.7 97.84,11.448 98.164,11.34 C98.488,11.232 101.008,10.8 102.952,10.8 C107.416,10.8 109.036,12.672 109.036,16.92 L109.036,24.876 C109.036,25.236 108.712,25.56 108.352,25.56 L106.768,25.56 C106.552,25.56 106.3,25.488 106.12,25.092 L105.616,24.12 C104.788,24.876 103.528,25.92 101.26,25.92 C98.416,25.92 96.292,24.012 96.292,21.168 Z M100.972,20.808 C100.972,21.672 101.656,22.392 102.52,22.392 C103.384,22.392 104.104,21.672 104.104,20.808 C104.068,19.98 103.384,19.296 102.52,19.296 C101.656,19.296 100.972,19.98 100.972,20.808 Z M112.708,24.876 L112.708,11.844 C112.708,11.448 113.032,11.16 113.392,11.16 L115.084,11.16 C115.3,11.16 115.624,11.34 115.732,11.592 L116.308,13.032 C117.1,12.168 118.756,10.8 121.384,10.8 C125.848,10.8 128.224,14.22 128.224,18.324 L128.224,24.876 C128.224,25.236 127.9,25.56 127.54,25.56 L123.688,25.56 C123.292,25.56 123.004,25.236 123.004,24.876 L123.004,18.144 C123.004,16.704 122.176,15.444 120.556,15.444 C119.116,15.444 117.82,16.488 117.82,17.964 L117.82,24.876 C117.82,25.2 117.676,25.56 117.172,25.56 L113.392,25.56 C113.032,25.56 112.708,25.236 112.708,24.876 Z M132.184,20.916 L132.184,15.732 L131.248,15.732 C130.888,15.732 130.6,15.408 130.6,15.048 L130.6,11.844 C130.6,11.448 130.888,11.16 131.248,11.16 L132.184,11.16 L132.184,7.164 C132.184,6.804 132.508,6.48 132.868,6.48 L136.72,6.48 C137.08,6.48 137.368,6.804 137.368,7.164 L137.368,11.16 L140.032,11.16 C140.428,11.16 140.716,11.448 140.716,11.844 L140.716,15.048 C140.716,15.408 140.428,15.732 140.032,15.732 L137.368,15.732 L137.368,20.232 C137.368,21.024 137.908,21.096 138.34,21.096 C138.844,21.096 139.384,20.916 139.744,20.844 C140.104,20.772 140.428,20.916 140.536,21.312 L141.328,24.3 C141.4,24.624 141.22,25.02 140.86,25.128 C140.86,25.128 138.304,25.92 136.504,25.92 C133.768,25.92 132.184,24.192 132.184,20.916 Z M143.02,21.168 C143.02,18.396 145.036,16.344 148.312,16.344 C149.932,16.344 151.084,16.92 151.084,16.92 C151.084,15.516 150.868,14.796 149.14,14.796 C148.168,14.796 146.476,15.048 145.54,15.336 C145,15.516 144.748,15.12 144.676,14.58 L144.352,12.312 C144.244,11.7 144.568,11.448 144.892,11.34 C145.216,11.232 147.736,10.8 149.68,10.8 C154.144,10.8 155.764,12.672 155.764,16.92 L155.764,24.876 C155.764,25.236 155.44,25.56 155.08,25.56 L153.496,25.56 C153.28,25.56 153.028,25.488 152.848,25.092 L152.344,24.12 C151.516,24.876 150.256,25.92 147.988,25.92 C145.144,25.92 143.02,24.012 143.02,21.168 Z M147.7,20.808 C147.7,21.672 148.384,22.392 149.248,22.392 C150.112,22.392 150.832,21.672 150.832,20.808 C150.796,19.98 150.112,19.296 149.248,19.296 C148.384,19.296 147.7,19.98 147.7,20.808 Z M164.8,25.236 L164.8,35.676 C164.8,36.036 164.476,36.36 164.116,36.36 L160.12,36.36 C159.76,36.36 159.436,36.036 159.436,35.676 L159.436,11.844 C159.436,11.484 159.76,11.16 160.12,11.16 L161.812,11.16 C162.172,11.16 162.424,11.484 162.568,11.88 L163,13.068 C163,13.068 164.656,10.8 167.824,10.8 C171.892,10.8 174.952,14.22 174.952,18.36 C174.952,23.436 171.64,25.92 167.788,25.92 C166.564,25.92 165.232,25.488 164.8,25.236 Z M164.224,18.396 C164.224,20.016 165.448,21.276 167.104,21.276 C168.76,21.276 170.02,20.016 170.02,18.396 C170.02,16.74 168.76,15.444 167.104,15.444 C165.448,15.444 164.224,16.74 164.224,18.396 Z M183.16,25.236 L183.16,35.676 C183.16,36.036 182.836,36.36 182.476,36.36 L178.48,36.36 C178.12,36.36 177.796,36.036 177.796,35.676 L177.796,11.844 C177.796,11.484 178.12,11.16 178.48,11.16 L180.172,11.16 C180.532,11.16 180.784,11.484 180.928,11.88 L181.36,13.068 C181.36,13.068 183.016,10.8 186.184,10.8 C190.252,10.8 193.312,14.22 193.312,18.36 C193.312,23.436 190,25.92 186.148,25.92 C184.924,25.92 183.592,25.488 183.16,25.236 Z M182.584,18.396 C182.584,20.016 183.808,21.276 185.464,21.276 C187.12,21.276 188.38,20.016 188.38,18.396 C188.38,16.74 187.12,15.444 185.464,15.444 C183.808,15.444 182.584,16.74 182.584,18.396 Z" id="f.Plantapp"></path>
            <path d="M0,24.876 L0,1.044 C0,0.684 0.288,0.36 0.648,0.36 L9.432,0.36 C16.38,0.36 22.068,6.012 22.068,12.924 C22.068,19.908 16.38,25.56 9.432,25.56 L0.648,25.56 C0.288,25.56 0,25.236 0,24.876 Z M5.616,20.232 L9.072,20.232 C13.14,20.232 16.092,17.028 16.092,12.924 C16.092,8.856 13.14,5.652 9.072,5.652 L5.616,5.652 L5.616,20.232 Z M27.288,6.804 C25.704,6.804 24.444,5.544 24.444,3.96 C24.444,2.376 25.704,1.08 27.288,1.08 C28.872,1.08 30.168,2.376 30.168,3.96 C30.168,5.544 28.872,6.804 27.288,6.804 Z M24.66,24.876 L24.66,11.844 C24.66,11.448 24.984,11.16 25.344,11.16 L29.304,11.16 C29.664,11.16 29.988,11.448 29.988,11.844 L29.988,24.876 C29.988,25.236 29.664,25.56 29.304,25.56 L25.344,25.56 C24.984,25.56 24.66,25.236 24.66,24.876 Z M34.632,24.876 L34.632,15.732 L33.876,15.732 C33.48,15.732 33.192,15.408 33.192,15.048 L33.192,11.844 C33.192,11.448 33.48,11.16 33.876,11.16 L34.632,11.16 L34.632,7.848 C34.632,2.808 37.764,0 41.94,0 C43.812,0 45.72,0.792 46.332,1.368 C46.548,1.548 46.62,1.944 46.476,2.196 L44.964,5.184 C44.856,5.436 44.424,5.58 44.136,5.436 C43.668,5.184 42.984,4.86 42.264,4.86 C40.752,4.86 40.14,6.084 40.14,7.848 L40.14,11.16 L43.452,11.16 C43.848,11.16 44.136,11.448 44.136,11.844 L44.136,15.048 C44.136,15.408 43.848,15.732 43.452,15.732 L40.14,15.732 L40.14,24.876 C40.14,25.236 39.816,25.56 39.456,25.56 L35.316,25.56 C34.956,25.56 34.632,25.236 34.632,24.876 Z" id="Dif"></path>
        </g>
    </g>
</svg>